name p1_grf_mean_speed_1.4
datacolumns 13
datarows 51
range 0.0000000000 0.5000000000
endheader
time	grf_x_l_mean	grf_x_l_var	grf_y_l_mean	grf_y_l_var	grf_z_l_mean	grf_z_l_var	grf_x_r_mean	grf_x_r_var	grf_y_r_mean	grf_y_r_var	grf_z_r_mean	grf_z_r_var
0.0000000000	128.8268286845	1.0000000000	714.2101906515	1.0000000000	0.0000000000	0.0000000000	6.3150739252	1.0000000000	11.0350112979	1.0000000000	0.0000000000	0.0000000000
0.0100000000	139.3506959914	1.0000000000	699.4152621657	1.0000000000	0.0000000000	0.0000000000	8.2678826253	1.0000000000	46.5238011101	1.0000000000	0.0000000000	0.0000000000
0.0200000000	149.1171663308	1.0000000000	674.4476218465	1.0000000000	0.0000000000	0.0000000000	6.7356871885	1.0000000000	104.9190633634	1.0000000000	0.0000000000	0.0000000000
0.0300000000	157.1798147192	1.0000000000	638.0548467232	1.0000000000	0.0000000000	0.0000000000	-3.5485131838	1.0000000000	183.4147827303	1.0000000000	0.0000000000	0.0000000000
0.0400000000	161.7737457000	1.0000000000	589.2519499394	1.0000000000	0.0000000000	0.0000000000	-25.7998382573	1.0000000000	273.6606876292	1.0000000000	0.0000000000	0.0000000000
0.0500000000	161.7794543329	1.0000000000	528.1001142333	1.0000000000	0.0000000000	0.0000000000	-56.8717422884	1.0000000000	366.8008659409	1.0000000000	0.0000000000	0.0000000000
0.0600000000	155.9412449540	1.0000000000	456.2347203393	1.0000000000	0.0000000000	0.0000000000	-89.6658029440	1.0000000000	457.5626969015	1.0000000000	0.0000000000	0.0000000000
0.0700000000	143.3738122674	1.0000000000	376.9014865194	1.0000000000	0.0000000000	0.0000000000	-119.4179640077	1.0000000000	542.1473721615	1.0000000000	0.0000000000	0.0000000000
0.0800000000	124.0545542705	1.0000000000	294.4346125201	1.0000000000	0.0000000000	0.0000000000	-143.3652237741	1.0000000000	615.6628597678	1.0000000000	0.0000000000	0.0000000000
0.0900000000	99.2673859673	1.0000000000	214.0353605049	1.0000000000	0.0000000000	0.0000000000	-159.7845479888	1.0000000000	674.0004221486	1.0000000000	0.0000000000	0.0000000000
0.1000000000	71.6637173236	1.0000000000	141.3201923706	1.0000000000	0.0000000000	0.0000000000	-168.0568954264	1.0000000000	715.8032507189	1.0000000000	0.0000000000	0.0000000000
0.1100000000	45.2808562990	1.0000000000	81.2923363233	1.0000000000	0.0000000000	0.0000000000	-169.1343616403	1.0000000000	743.0221292296	1.0000000000	0.0000000000	0.0000000000
0.1200000000	23.6710708358	1.0000000000	37.3026265402	1.0000000000	0.0000000000	0.0000000000	-164.4663892916	1.0000000000	759.3211309259	1.0000000000	0.0000000000	0.0000000000
0.1300000000	8.8824478052	1.0000000000	10.1534638196	1.0000000000	0.0000000000	0.0000000000	-155.3890624961	1.0000000000	767.3746717026	1.0000000000	0.0000000000	0.0000000000
0.1400000000	0.0000000000	1.0000000000	0.0000000000	1.0000000000	0.0000000000	0.0000000000	-143.4166815257	1.0000000000	767.8468902179	1.0000000000	0.0000000000	0.0000000000
0.1500000000	0.0000000000	1.0000000000	0.0000000000	1.0000000000	0.0000000000	0.0000000000	-130.1388027441	1.0000000000	761.0033159616	1.0000000000	0.0000000000	0.0000000000
0.1600000000	0.0000000000	1.0000000000	0.0000000000	1.0000000000	0.0000000000	0.0000000000	-116.3510391493	1.0000000000	748.1463664045	1.0000000000	0.0000000000	0.0000000000
0.1700000000	0.0000000000	1.0000000000	0.0000000000	1.0000000000	0.0000000000	0.0000000000	-102.4046926426	1.0000000000	730.4109183016	1.0000000000	0.0000000000	0.0000000000
0.1800000000	0.0000000000	1.0000000000	0.0000000000	1.0000000000	0.0000000000	0.0000000000	-88.4206567858	1.0000000000	707.4384571456	1.0000000000	0.0000000000	0.0000000000
0.1900000000	0.0000000000	1.0000000000	0.0000000000	1.0000000000	0.0000000000	0.0000000000	-74.7525142216	1.0000000000	678.9127952517	1.0000000000	0.0000000000	0.0000000000
0.2000000000	0.0000000000	1.0000000000	0.0000000000	1.0000000000	0.0000000000	0.0000000000	-61.7938266039	1.0000000000	646.4964821327	1.0000000000	0.0000000000	0.0000000000
0.2100000000	0.1310561889	1.0000000000	0.2898878585	1.0000000000	0.0000000000	0.0000000000	-50.1630339344	1.0000000000	612.8653488875	1.0000000000	0.0000000000	0.0000000000
0.2200000000	0.1813502364	1.0000000000	0.3182649399	1.0000000000	0.0000000000	0.0000000000	-40.0952013452	1.0000000000	579.8936429173	1.0000000000	0.0000000000	0.0000000000
0.2300000000	0.1487904305	1.0000000000	0.2349519806	1.0000000000	0.0000000000	0.0000000000	-31.6650432002	1.0000000000	548.8034547272	1.0000000000	0.0000000000	0.0000000000
0.2400000000	0.0920721938	1.0000000000	0.1335382607	1.0000000000	0.0000000000	0.0000000000	-24.9081866210	1.0000000000	521.1918440746	1.0000000000	0.0000000000	0.0000000000
0.2500000000	0.0413082973	1.0000000000	0.0548796782	1.0000000000	0.0000000000	0.0000000000	-19.5257089229	1.0000000000	498.7149959680	1.0000000000	0.0000000000	0.0000000000
0.2600000000	0.0088262768	1.0000000000	0.0089050033	1.0000000000	0.0000000000	0.0000000000	-15.0417755651	1.0000000000	482.1043079946	1.0000000000	0.0000000000	0.0000000000
0.2700000000	0.0000000000	1.0000000000	0.0000000000	1.0000000000	0.0000000000	0.0000000000	-11.1556967235	1.0000000000	471.2449812707	1.0000000000	0.0000000000	0.0000000000
0.2800000000	0.0000000000	1.0000000000	0.0000000000	1.0000000000	0.0000000000	0.0000000000	-7.4568880867	1.0000000000	465.8771031220	1.0000000000	0.0000000000	0.0000000000
0.2900000000	0.0000000000	1.0000000000	0.0000000000	1.0000000000	0.0000000000	0.0000000000	-3.6981620394	1.0000000000	465.8617918614	1.0000000000	0.0000000000	0.0000000000
0.3000000000	0.0000000000	1.0000000000	0.0000000000	1.0000000000	0.0000000000	0.0000000000	0.0418383208	1.0000000000	470.8662591359	1.0000000000	0.0000000000	0.0000000000
0.3100000000	0.0079563271	1.0000000000	0.0004845000	1.0000000000	0.0000000000	0.0000000000	3.8650570376	1.0000000000	479.9583293539	1.0000000000	0.0000000000	0.0000000000
0.3200000000	0.0000000000	1.0000000000	0.0000000000	1.0000000000	0.0000000000	0.0000000000	8.0875142566	1.0000000000	491.8316524154	1.0000000000	0.0000000000	0.0000000000
0.3300000000	0.0000000000	1.0000000000	0.0000000000	1.0000000000	0.0000000000	0.0000000000	12.6987630525	1.0000000000	505.7145881096	1.0000000000	0.0000000000	0.0000000000
0.3400000000	0.0000000000	1.0000000000	0.0000000000	1.0000000000	0.0000000000	0.0000000000	17.7936406898	1.0000000000	521.3356344431	1.0000000000	0.0000000000	0.0000000000
0.3500000000	0.0000000000	1.0000000000	0.0000000000	1.0000000000	0.0000000000	0.0000000000	23.5744826035	1.0000000000	538.1124240947	1.0000000000	0.0000000000	0.0000000000
0.3600000000	0.0079783478	1.0000000000	0.0056693739	1.0000000000	0.0000000000	0.0000000000	30.0399815005	1.0000000000	555.2472028876	1.0000000000	0.0000000000	0.0000000000
0.3700000000	0.0064508340	1.0000000000	0.0542913017	1.0000000000	0.0000000000	0.0000000000	37.0990019265	1.0000000000	572.4279182710	1.0000000000	0.0000000000	0.0000000000
0.3800000000	0.0017171238	1.0000000000	0.1346549474	1.0000000000	0.0000000000	0.0000000000	44.6428586112	1.0000000000	589.8136197489	1.0000000000	0.0000000000	0.0000000000
0.3900000000	-0.0098651749	1.0000000000	0.2377577869	1.0000000000	0.0000000000	0.0000000000	52.4467735241	1.0000000000	607.4924746440	1.0000000000	0.0000000000	0.0000000000
0.4000000000	-0.0321442378	1.0000000000	0.3218724648	1.0000000000	0.0000000000	0.0000000000	60.4674100178	1.0000000000	625.1822874667	1.0000000000	0.0000000000	0.0000000000
0.4100000000	-0.0668357963	1.0000000000	0.2906564065	1.0000000000	0.0000000000	0.0000000000	68.7587183894	1.0000000000	642.4008122289	1.0000000000	0.0000000000	0.0000000000
0.4200000000	0.0000000000	1.0000000000	0.0000000000	1.0000000000	0.0000000000	0.0000000000	77.2273560653	1.0000000000	658.8301101289	1.0000000000	0.0000000000	0.0000000000
0.4300000000	0.0000000000	1.0000000000	0.0000000000	1.0000000000	0.0000000000	0.0000000000	85.9031227277	1.0000000000	674.3154643778	1.0000000000	0.0000000000	0.0000000000
0.4400000000	0.0000000000	1.0000000000	0.0000000000	1.0000000000	0.0000000000	0.0000000000	94.9720415631	1.0000000000	688.4780200685	1.0000000000	0.0000000000	0.0000000000
0.4500000000	0.0000000000	1.0000000000	0.0000000000	1.0000000000	0.0000000000	0.0000000000	104.4193242042	1.0000000000	700.5835526726	1.0000000000	0.0000000000	0.0000000000
0.4600000000	0.0000000000	1.0000000000	0.0000000000	1.0000000000	0.0000000000	0.0000000000	114.1837250960	1.0000000000	709.9181335765	1.0000000000	0.0000000000	0.0000000000
0.4700000000	0.0000000000	1.0000000000	0.0000000000	1.0000000000	0.0000000000	0.0000000000	124.1099753833	1.0000000000	715.8429844979	1.0000000000	0.0000000000	0.0000000000
0.4800000000	0.0000000000	1.0000000000	0.0000000000	1.0000000000	0.0000000000	0.0000000000	133.9343496395	1.0000000000	717.2292743316	1.0000000000	0.0000000000	0.0000000000
0.4900000000	2.8870959951	1.0000000000	11.7697010035	1.0000000000	0.0000000000	0.0000000000	143.4017449291	1.0000000000	712.3737888594	1.0000000000	0.0000000000	0.0000000000
0.5000000000	2.6646821359	1.0000000000	41.6530943565	1.0000000000	0.0000000000	0.0000000000	152.2445601441	1.0000000000	699.6516965461	1.0000000000	0.0000000000	0.0000000000
